<svg width="20" height="20" viewBox="0 0 20 20" fill="none" xmlns="http://www.w3.org/2000/svg">
<g clip-path="url(#clip0_107_76)">
<path d="M10 0C4.49231 0 0 4.49231 0 10C0 15.5077 4.49231 20 10 20C15.5077 20 20 15.5077 20 10C20 4.49231 15.5077 0 10 0ZM16.5846 13.6C16.5538 13.6615 16.5231 13.7231 16.4615 13.7846L14.8923 15.3538C14.8308 15.3846 14.8 15.4462 14.7692 15.4769C14.6462 15.6308 14.4615 15.6923 14.2462 15.6923C13.1077 15.6923 11.9385 15.6923 10.8 15.6923C9.6 15.6923 8.4 15.6923 7.2 15.6923H3.69231C3.66154 15.6923 3.66154 15.6923 3.63077 15.6923C3.6 15.6923 3.56923 15.6923 3.53846 15.6923C3.35385 15.6615 3.2 15.6 3.10769 15.4154C3.07692 15.3538 3.07692 15.2923 3.07692 15.2308C3.07692 15.1077 3.13846 15.0154 3.23077 14.9231C3.38462 14.7692 3.53846 14.6154 3.69231 14.4615C4.03077 14.1231 4.33846 13.8154 4.64615 13.4462C4.95385 13.1077 5.29231 12.9846 5.75385 12.9846C6.18462 12.9846 6.61538 12.9846 7.01538 13.0154C7.93846 13.0154 8.89231 13.0154 9.81538 13.0154H15.9385C16 13.0154 16.0615 13.0154 16.1231 13.0154C16.3077 13.0462 16.4615 13.1077 16.5231 13.2923C16.6154 13.3846 16.6154 13.5077 16.5846 13.6ZM3.07692 9.23077C3.07692 9.04615 3.16923 8.89231 3.35385 8.83077C3.44615 8.8 3.53846 8.8 3.66154 8.8C7.16923 8.8 10.6769 8.8 14.1846 8.8C14.4308 8.8 14.5846 8.86154 14.7692 9.04615C15.2308 9.50769 15.6923 9.96923 16.1538 10.4308L16.4308 10.7077C16.5538 10.8308 16.6462 10.9846 16.6154 11.1385C16.6154 11.1692 16.6154 11.2 16.5846 11.2308C16.4923 11.4462 16.3077 11.5077 16.0923 11.5077C14.4 11.5077 12.7077 11.5077 11.0462 11.5077C10.9538 11.5077 10.8308 11.5077 10.7385 11.5077C9.66154 11.5077 8.58462 11.5077 7.50769 11.5077C6.8 11.5077 6.09231 11.5077 5.41538 11.5077C5.2 11.5077 5.04615 11.4462 4.89231 11.2923C4.70769 11.1077 4.55385 10.9231 4.36923 10.7692C4.03077 10.4 3.66154 10.0615 3.32308 9.69231C3.26154 9.63077 3.2 9.53846 3.13846 9.47692C3.10769 9.38462 3.07692 9.29231 3.07692 9.23077ZM16.4 5.47692C15.8769 6 15.3538 6.55385 14.8308 7.07692C14.6462 7.26154 14.4308 7.38462 14.1538 7.38462C10.6769 7.38462 7.16923 7.38462 3.69231 7.38462H3.53846C3.35385 7.38462 3.2 7.29231 3.13846 7.13846C3.04615 6.95385 3.07692 6.8 3.2 6.64615C3.26154 6.55385 3.35385 6.49231 3.44615 6.4C3.53846 6.30769 3.63077 6.21538 3.72308 6.12308C3.81538 6.03077 3.93846 5.90769 4.03077 5.81538C4.33846 5.50769 4.64615 5.16923 4.95385 4.86154C4.98462 4.83077 5.01538 4.8 5.07692 4.76923H5.10769L5.13846 4.73846C5.16923 4.70769 5.16923 4.70769 5.2 4.67692H16.3077C16.6769 4.86154 16.7077 5.13846 16.4 5.47692Z" fill="#46D865"/>
</g>
<defs>
<clipPath id="clip0_107_76">
<rect width="20" height="20" fill="white"/>
</clipPath>
</defs>
</svg>
